<?xml version="1.0" encoding="UTF-8" standalone="no"?>
<svg width="800" height="500" viewBox="0 0 800 500" fill="none" xmlns="http://www.w3.org/2000/svg">
  <rect width="800" height="500" fill="#1E293B"/>
  <rect x="20" y="20" width="760" height="60" rx="8" fill="#334155"/>
  <rect x="40" y="40" width="120" height="20" rx="4" fill="#60A5FA"/>
  <rect x="600" y="40" width="80" height="20" rx="4" fill="#4F46E5"/>
  <rect x="700" y="40" width="60" height="20" rx="4" fill="#4F46E5"/>
  
  <!-- Sidebar -->
  <rect x="20" y="100" width="200" height="380" rx="8" fill="#334155"/>
  <rect x="40" y="120" width="160" height="40" rx="4" fill="#475569"/>
  <rect x="40" y="180" width="160" height="40" rx="4" fill="#475569"/>
  <rect x="40" y="240" width="160" height="40" rx="4" fill="#475569"/>
  <rect x="40" y="300" width="160" height="40" rx="4" fill="#475569"/>
  <rect x="40" y="360" width="160" height="40" rx="4" fill="#475569"/>
  
  <!-- Main content -->
  <rect x="240" y="100" width="540" height="180" rx="8" fill="#334155"/>
  <rect x="260" y="120" width="200" height="20" rx="4" fill="#60A5FA"/>
  <rect x="260" y="160" width="500" height="100" rx="4" fill="#475569"/>
  
  <!-- Stats cards -->
  <rect x="240" y="300" width="170" height="80" rx="8" fill="#334155"/>
  <rect x="260" y="320" width="80" height="15" rx="4" fill="#60A5FA"/>
  <rect x="260" y="345" width="40" height="20" rx="4" fill="#F472B6"/>
  
  <rect x="425" y="300" width="170" height="80" rx="8" fill="#334155"/>
  <rect x="445" y="320" width="80" height="15" rx="4" fill="#60A5FA"/>
  <rect x="445" y="345" width="40" height="20" rx="4" fill="#34D399"/>
  
  <rect x="610" y="300" width="170" height="80" rx="8" fill="#334155"/>
  <rect x="630" y="320" width="80" height="15" rx="4" fill="#60A5FA"/>
  <rect x="630" y="345" width="40" height="20" rx="4" fill="#FBBF24"/>
  
  <!-- Chat section -->
  <rect x="240" y="400" width="540" height="80" rx="8" fill="#334155"/>
  <rect x="260" y="420" width="400" height="15" rx="4" fill="#475569"/>
  <rect x="260" y="445" width="300" height="15" rx="4" fill="#475569"/>
  <rect x="700" y="430" width="60" height="25" rx="4" fill="#4F46E5"/>
  
  <!-- TariConnect text -->
  <text x="400" y="250" font-family="Arial" font-size="24" fill="#FFFFFF" text-anchor="middle">TariConnect Dashboard</text>
</svg>